<svg width="693" height="29" viewBox="0 0 693 29" fill="none" xmlns="http://www.w3.org/2000/svg">
<path d="M9.08 23.288C6.648 23.288 4.632 22.432 3.032 20.72C1.448 18.992 0.656 16.912 0.656 14.48C0.656 12 1.456 9.912 3.056 8.216C4.656 6.52 6.664 5.672 9.08 5.672C10.888 5.672 12.528 6.136 14 7.064C15.472 7.992 16.448 9.288 16.928 10.952H14.504C14.056 9.976 13.32 9.216 12.296 8.672C11.288 8.128 10.216 7.856 9.08 7.856C7.272 7.856 5.816 8.504 4.712 9.8C3.624 11.096 3.08 12.656 3.08 14.48C3.08 16.32 3.632 17.888 4.736 19.184C5.84 20.464 7.288 21.104 9.08 21.104C11.592 21.104 13.416 20.064 14.552 17.984H16.928C16.656 19.056 16.112 20.008 15.296 20.84C14.48 21.656 13.528 22.28 12.44 22.712C11.496 23.096 10.376 23.288 9.08 23.288ZM26.0143 10.856C27.7903 10.856 29.2703 11.456 30.4543 12.656C31.6543 13.84 32.2543 15.312 32.2543 17.072C32.2543 18.832 31.6463 20.312 30.4303 21.512C29.2303 22.696 27.7583 23.288 26.0143 23.288C24.2383 23.288 22.7503 22.688 21.5503 21.488C20.3663 20.288 19.7743 18.816 19.7743 17.072C19.7743 15.296 20.3743 13.816 21.5742 12.632C22.7743 11.448 24.2543 10.856 26.0143 10.856ZM26.0143 21.272C27.1983 21.272 28.1583 20.864 28.8943 20.048C29.6303 19.232 29.9983 18.24 29.9983 17.072C29.9983 15.872 29.6223 14.872 28.8703 14.072C28.1343 13.272 27.1823 12.872 26.0143 12.872C24.8303 12.872 23.8703 13.28 23.1343 14.096C22.3983 14.896 22.0303 15.888 22.0303 17.072C22.0303 18.256 22.4063 19.256 23.1583 20.072C23.9103 20.872 24.8623 21.272 26.0143 21.272ZM38.0332 21.08V28.376H35.8732V11.144H38.0332V13.184C38.4012 12.448 38.9932 11.88 39.8092 11.48C40.6252 11.064 41.4732 10.856 42.3532 10.856C44.1292 10.856 45.5452 11.448 46.6012 12.632C47.6572 13.816 48.1852 15.296 48.1852 17.072C48.1852 18.864 47.6492 20.352 46.5772 21.536C45.5052 22.704 44.0972 23.288 42.3532 23.288C41.6332 23.288 40.9052 23.144 40.1692 22.856C39.4492 22.568 38.8812 22.168 38.4652 21.656C38.2412 21.416 38.0972 21.224 38.0332 21.08ZM37.9852 17.072C37.9852 18.32 38.3532 19.312 39.0892 20.048C39.8092 20.864 40.7692 21.272 41.9692 21.272C43.1532 21.272 44.1132 20.872 44.8492 20.072C45.5852 19.256 45.9532 18.256 45.9532 17.072C45.9532 15.904 45.5932 14.904 44.8732 14.072C44.0732 13.272 43.1052 12.872 41.9692 12.872C40.7692 12.872 39.8012 13.272 39.0652 14.072C38.3452 14.872 37.9852 15.872 37.9852 17.072ZM62.9701 11.144L55.1941 28.376H52.9621L55.5061 22.736L50.1301 11.144H52.6021L56.6581 20.168L60.7141 11.144H62.9701ZM67.9634 16.304V23H65.7794V11.144H67.9634V13.328C68.0274 13.136 68.1634 12.896 68.3714 12.608C68.7074 12.064 69.2194 11.672 69.9074 11.432C70.6114 11.176 71.3394 11.048 72.0914 11.048H75.0674V13.232H72.0434C70.7314 13.232 69.7234 13.448 69.0194 13.88C68.3154 14.296 67.9634 15.104 67.9634 16.304ZM78.0836 8.864V5.432H80.3636V8.864H78.0836ZM78.1316 23V11.144H80.3156V23H78.1316ZM94.1696 23V20.984C94.1216 21.08 93.9856 21.288 93.7616 21.608C92.8336 22.744 91.5296 23.312 89.8496 23.312C88.0896 23.312 86.6736 22.72 85.6016 21.536C84.5296 20.336 83.9936 18.856 83.9936 17.096C83.9936 15.304 84.5296 13.816 85.6016 12.632C86.6896 11.448 88.1056 10.856 89.8496 10.856C91.5456 10.856 92.8416 11.408 93.7376 12.512C93.9616 12.8 94.1056 13.008 94.1696 13.136V11.144H96.3536V23C96.3536 24.84 95.7776 26.24 94.6256 27.2C93.4736 28.176 91.9776 28.664 90.1376 28.664C88.1856 28.664 86.6256 28.136 85.4576 27.08C84.7536 26.424 84.2976 25.704 84.0896 24.92H86.4896C87.2576 26.072 88.4736 26.648 90.1376 26.648C91.3856 26.648 92.3696 26.344 93.0896 25.736C93.8096 25.128 94.1696 24.216 94.1696 23ZM94.2176 17.096C94.2176 15.912 93.8576 14.904 93.1376 14.072C92.3376 13.272 91.3776 12.872 90.2576 12.872C89.0416 12.872 88.0656 13.272 87.3296 14.072C86.6096 14.872 86.2496 15.88 86.2496 17.096C86.2496 18.296 86.6256 19.296 87.3776 20.096C88.1296 20.896 89.0896 21.296 90.2576 21.296C91.4256 21.296 92.3776 20.888 93.1136 20.072C93.8496 19.256 94.2176 18.264 94.2176 17.096ZM103.049 16.592V23H100.865V5.336H103.049V13.328C103.433 12.576 103.985 11.984 104.705 11.552C105.441 11.104 106.233 10.88 107.081 10.88C108.537 10.88 109.761 11.376 110.753 12.368C111.681 13.408 112.145 14.68 112.145 16.184V23H109.937V16.592C109.937 15.504 109.641 14.616 109.049 13.928C108.457 13.24 107.625 12.896 106.553 12.896C105.481 12.896 104.625 13.248 103.985 13.952C103.361 14.656 103.049 15.536 103.049 16.592ZM125.098 20.984V23H122.29C119.522 23 118.138 21.68 118.138 19.04V13.112H114.634V11.144H118.138V5.96H120.322V11.144H125.098V13.112H120.322V18.536C120.322 19.432 120.506 20.064 120.874 20.432C121.242 20.8 121.874 20.984 122.77 20.984H125.098ZM176.768 20.888V23H164.792V21.56L170.552 15.872C171.544 14.88 172.264 14.056 172.712 13.4C173.208 12.6 173.456 11.776 173.456 10.928C173.456 9.952 173.168 9.184 172.592 8.624C172.032 8.064 171.264 7.784 170.288 7.784C169.312 7.784 168.536 8.096 167.96 8.72C167.4 9.328 167.12 10.128 167.12 11.12V12.224H164.84V11.096C164.84 9.448 165.344 8.136 166.352 7.16C167.36 6.168 168.672 5.672 170.288 5.672C171.904 5.672 173.224 6.152 174.248 7.112C175.272 8.072 175.784 9.344 175.784 10.928C175.784 12.16 175.456 13.264 174.8 14.24C174.16 15.2 173.248 16.24 172.064 17.36L168.464 20.888H176.768ZM186.132 5.672C188.036 5.672 189.5 6.24 190.524 7.376C191.564 8.512 192.084 10.016 192.084 11.888V17.072C192.084 19.008 191.556 20.528 190.5 21.632C189.46 22.736 188.004 23.288 186.132 23.288C184.228 23.288 182.756 22.72 181.716 21.584C180.692 20.448 180.18 18.944 180.18 17.072V11.888C180.18 9.984 180.708 8.472 181.764 7.352C182.82 6.232 184.276 5.672 186.132 5.672ZM186.132 21.176C187.332 21.176 188.236 20.792 188.844 20.024C189.468 19.24 189.78 18.248 189.78 17.048V11.912C189.78 10.68 189.468 9.688 188.844 8.936C188.22 8.168 187.316 7.784 186.132 7.784C184.932 7.784 184.02 8.176 183.396 8.96C182.788 9.728 182.484 10.712 182.484 11.912V17.048C182.484 18.28 182.796 19.28 183.42 20.048C184.06 20.8 184.964 21.176 186.132 21.176ZM208.221 20.888V23H196.245V21.56L202.005 15.872C202.997 14.88 203.717 14.056 204.165 13.4C204.661 12.6 204.909 11.776 204.909 10.928C204.909 9.952 204.621 9.184 204.045 8.624C203.485 8.064 202.717 7.784 201.741 7.784C200.765 7.784 199.989 8.096 199.413 8.72C198.853 9.328 198.573 10.128 198.573 11.12V12.224H196.293V11.096C196.293 9.448 196.797 8.136 197.805 7.16C198.813 6.168 200.125 5.672 201.741 5.672C203.357 5.672 204.677 6.152 205.701 7.112C206.725 8.072 207.237 9.344 207.237 10.928C207.237 12.16 206.909 13.264 206.253 14.24C205.613 15.2 204.701 16.24 203.517 17.36L199.917 20.888H208.221ZM217.585 5.672C219.489 5.672 220.953 6.24 221.977 7.376C223.017 8.512 223.537 10.016 223.537 11.888V17.072C223.537 19.008 223.009 20.528 221.953 21.632C220.913 22.736 219.457 23.288 217.585 23.288C215.681 23.288 214.209 22.72 213.169 21.584C212.145 20.448 211.633 18.944 211.633 17.072V11.888C211.633 9.984 212.161 8.472 213.217 7.352C214.273 6.232 215.729 5.672 217.585 5.672ZM217.585 21.176C218.785 21.176 219.689 20.792 220.297 20.024C220.921 19.24 221.233 18.248 221.233 17.048V11.912C221.233 10.68 220.921 9.688 220.297 8.936C219.673 8.168 218.769 7.784 217.585 7.784C216.385 7.784 215.473 8.176 214.849 8.96C214.241 9.728 213.937 10.712 213.937 11.912V17.048C213.937 18.28 214.249 19.28 214.873 20.048C215.513 20.8 216.417 21.176 217.585 21.176ZM248.21 23L246.314 18.896H237.242L235.346 23H233.042L240.914 5.864H242.762L250.658 23H248.21ZM238.202 16.784H245.354L241.778 9.008L238.202 16.784ZM255.885 16.304V23H253.701V11.144H255.885V13.328C255.949 13.136 256.085 12.896 256.293 12.608C256.629 12.064 257.141 11.672 257.829 11.432C258.533 11.176 259.261 11.048 260.013 11.048H262.989V13.232H259.965C258.653 13.232 257.645 13.448 256.941 13.88C256.237 14.296 255.885 15.104 255.885 16.304ZM274.957 20.984V23H272.149C269.381 23 267.997 21.68 267.997 19.04V13.112H264.493V11.144H267.997V5.96H270.181V11.144H274.957V13.112H270.181V18.536C270.181 19.432 270.365 20.064 270.733 20.432C271.101 20.8 271.733 20.984 272.629 20.984H274.957ZM283.423 10.856C285.279 10.856 286.751 11.48 287.839 12.728C288.927 13.96 289.471 15.496 289.471 17.336H279.607C279.639 18.12 279.879 18.856 280.327 19.544C280.775 20.216 281.351 20.688 282.055 20.96C282.519 21.168 283.047 21.272 283.639 21.272C284.343 21.272 285.039 21.136 285.727 20.864C286.415 20.576 286.895 20.16 287.167 19.616H289.327C289.199 20.336 288.831 20.984 288.223 21.56C287.615 22.12 286.935 22.552 286.183 22.856C285.495 23.144 284.647 23.288 283.639 23.288C281.847 23.288 280.359 22.696 279.175 21.512C277.991 20.328 277.399 18.848 277.399 17.072C277.399 15.296 277.967 13.816 279.103 12.632C280.239 11.448 281.679 10.856 283.423 10.856ZM283.423 12.728C282.495 12.728 281.703 12.968 281.047 13.448C280.407 13.928 279.975 14.616 279.751 15.512H287.047C286.775 14.632 286.327 13.952 285.703 13.472C285.079 12.976 284.319 12.728 283.423 12.728ZM293.031 23V5.336H295.215V23H293.031ZM322.067 13.448V20.648C321.171 21.544 320.059 22.208 318.731 22.64C317.419 23.072 316.051 23.288 314.627 23.288C311.955 23.288 309.771 22.472 308.075 20.84C306.379 19.208 305.531 17.08 305.531 14.456C305.531 11.928 306.347 9.832 307.979 8.168C309.611 6.504 311.675 5.672 314.171 5.672C315.883 5.672 317.403 6.04 318.731 6.776C320.075 7.496 321.035 8.592 321.611 10.064H319.187C318.083 8.576 316.411 7.832 314.171 7.832C312.267 7.832 310.747 8.464 309.611 9.728C308.491 10.992 307.931 12.568 307.931 14.456C307.931 16.472 308.555 18.088 309.803 19.304C311.051 20.52 312.659 21.128 314.627 21.128C316.851 21.128 318.595 20.664 319.859 19.736V15.536H313.139V13.448H322.067ZM328.635 16.304V23H326.451V11.144H328.635V13.328C328.699 13.136 328.835 12.896 329.043 12.608C329.379 12.064 329.891 11.672 330.579 11.432C331.283 11.176 332.011 11.048 332.763 11.048H335.739V13.232H332.715C331.403 13.232 330.395 13.448 329.691 13.88C328.987 14.296 328.635 15.104 328.635 16.304ZM344.014 10.856C345.79 10.856 347.27 11.456 348.454 12.656C349.654 13.84 350.254 15.312 350.254 17.072C350.254 18.832 349.646 20.312 348.43 21.512C347.23 22.696 345.758 23.288 344.014 23.288C342.238 23.288 340.75 22.688 339.55 21.488C338.366 20.288 337.774 18.816 337.774 17.072C337.774 15.296 338.374 13.816 339.574 12.632C340.774 11.448 342.254 10.856 344.014 10.856ZM344.014 21.272C345.198 21.272 346.158 20.864 346.894 20.048C347.63 19.232 347.998 18.24 347.998 17.072C347.998 15.872 347.622 14.872 346.87 14.072C346.134 13.272 345.182 12.872 344.014 12.872C342.83 12.872 341.87 13.28 341.134 14.096C340.398 14.896 340.03 15.888 340.03 17.072C340.03 18.256 340.406 19.256 341.158 20.072C341.91 20.872 342.862 21.272 344.014 21.272ZM359.297 23.264C357.681 23.264 356.345 22.784 355.289 21.824C354.249 20.848 353.729 19.568 353.729 17.984V11.144H355.913V17.576C355.913 18.664 356.201 19.544 356.777 20.216C357.369 20.888 358.201 21.224 359.273 21.224C360.361 21.224 361.193 20.896 361.769 20.24C362.345 19.568 362.633 18.68 362.633 17.576V11.144H364.841V17.984C364.841 19.6 364.313 20.888 363.257 21.848C362.217 22.792 360.897 23.264 359.297 23.264ZM371.361 21.08V28.376H369.201V11.144H371.361V13.184C371.729 12.448 372.321 11.88 373.137 11.48C373.953 11.064 374.801 10.856 375.681 10.856C377.457 10.856 378.873 11.448 379.929 12.632C380.985 13.816 381.513 15.296 381.513 17.072C381.513 18.864 380.977 20.352 379.905 21.536C378.833 22.704 377.425 23.288 375.681 23.288C374.961 23.288 374.233 23.144 373.497 22.856C372.777 22.568 372.209 22.168 371.793 21.656C371.569 21.416 371.425 21.224 371.361 21.08ZM371.313 17.072C371.313 18.32 371.681 19.312 372.417 20.048C373.137 20.864 374.097 21.272 375.297 21.272C376.481 21.272 377.441 20.872 378.177 20.072C378.913 19.256 379.281 18.256 379.281 17.072C379.281 15.904 378.921 14.904 378.201 14.072C377.401 13.272 376.433 12.872 375.297 12.872C374.097 12.872 373.129 13.272 372.393 14.072C371.673 14.872 371.313 15.872 371.313 17.072ZM392.618 28.136H390.842C392.026 26.136 392.634 24.424 392.666 23H391.37V19.592H394.154V22.808C394.154 24.12 393.826 25.552 393.17 27.104C393.138 27.168 392.954 27.512 392.618 28.136ZM405.281 23V5.96H407.609V23H405.281ZM414.721 16.592V23H412.537V11.144H414.721V13.328C415.105 12.576 415.657 11.984 416.377 11.552C417.113 11.104 417.905 10.88 418.753 10.88C420.209 10.88 421.433 11.376 422.425 12.368C423.353 13.408 423.817 14.68 423.817 16.184V23H421.609V16.592C421.609 15.504 421.313 14.616 420.721 13.928C420.129 13.24 419.297 12.896 418.225 12.896C417.153 12.896 416.297 13.248 415.657 13.952C415.033 14.656 414.721 15.536 414.721 16.592ZM438.97 14.84H436.762C436.106 13.528 434.954 12.872 433.306 12.872C432.186 12.872 431.282 13.288 430.594 14.12C429.906 14.952 429.562 15.936 429.562 17.072C429.562 18.208 429.914 19.192 430.618 20.024C431.322 20.856 432.226 21.272 433.33 21.272C434.978 21.272 436.138 20.616 436.81 19.304H438.97C438.89 20.008 438.466 20.776 437.698 21.608C436.626 22.728 435.17 23.288 433.33 23.288C431.618 23.288 430.186 22.68 429.034 21.464C427.882 20.248 427.306 18.784 427.306 17.072C427.306 15.344 427.882 13.88 429.034 12.68C430.186 11.464 431.61 10.856 433.306 10.856C434.666 10.856 435.882 11.208 436.954 11.912C438.026 12.6 438.698 13.576 438.97 14.84ZM442.3 23V19.592H445.084V23H442.3ZM469.507 23L467.611 18.896H458.539L456.643 23H454.339L462.211 5.864H464.059L471.955 23H469.507ZM459.499 16.784H466.651L463.075 9.008L459.499 16.784ZM475.046 23V5.336H477.23V23H475.046ZM481.96 23V5.336H484.144V23H481.96ZM497.245 16.304V23H495.061V11.144H497.245V13.328C497.309 13.136 497.445 12.896 497.653 12.608C497.989 12.064 498.501 11.672 499.189 11.432C499.893 11.176 500.621 11.048 501.373 11.048H504.349V13.232H501.325C500.013 13.232 499.005 13.448 498.301 13.88C497.597 14.296 497.245 15.104 497.245 16.304ZM507.365 8.864V5.432H509.645V8.864H507.365ZM507.413 23V11.144H509.597V23H507.413ZM523.451 23V20.984C523.403 21.08 523.267 21.288 523.043 21.608C522.115 22.744 520.811 23.312 519.131 23.312C517.371 23.312 515.955 22.72 514.883 21.536C513.811 20.336 513.275 18.856 513.275 17.096C513.275 15.304 513.811 13.816 514.883 12.632C515.971 11.448 517.387 10.856 519.131 10.856C520.827 10.856 522.123 11.408 523.019 12.512C523.243 12.8 523.387 13.008 523.451 13.136V11.144H525.635V23C525.635 24.84 525.059 26.24 523.907 27.2C522.755 28.176 521.259 28.664 519.419 28.664C517.467 28.664 515.907 28.136 514.739 27.08C514.035 26.424 513.579 25.704 513.371 24.92H515.771C516.539 26.072 517.755 26.648 519.419 26.648C520.667 26.648 521.651 26.344 522.371 25.736C523.091 25.128 523.451 24.216 523.451 23ZM523.499 17.096C523.499 15.912 523.139 14.904 522.419 14.072C521.619 13.272 520.659 12.872 519.539 12.872C518.323 12.872 517.347 13.272 516.611 14.072C515.891 14.872 515.531 15.88 515.531 17.096C515.531 18.296 515.907 19.296 516.659 20.096C517.411 20.896 518.371 21.296 519.539 21.296C520.707 21.296 521.659 20.888 522.395 20.072C523.131 19.256 523.499 18.264 523.499 17.096ZM532.331 16.592V23H530.147V5.336H532.331V13.328C532.715 12.576 533.267 11.984 533.987 11.552C534.723 11.104 535.515 10.88 536.363 10.88C537.819 10.88 539.043 11.376 540.035 12.368C540.963 13.408 541.427 14.68 541.427 16.184V23H539.219V16.592C539.219 15.504 538.923 14.616 538.331 13.928C537.739 13.24 536.907 12.896 535.835 12.896C534.763 12.896 533.907 13.248 533.267 13.952C532.643 14.656 532.331 15.536 532.331 16.592ZM554.379 20.984V23H551.571C548.803 23 547.419 21.68 547.419 19.04V13.112H543.915V11.144H547.419V5.96H549.603V11.144H554.379V13.112H549.603V18.536C549.603 19.432 549.787 20.064 550.155 20.432C550.523 20.8 551.155 20.984 552.051 20.984H554.379ZM563.514 18.08L560.97 17.792C559.834 17.68 558.898 17.336 558.162 16.76C557.442 16.168 557.082 15.336 557.082 14.264C557.082 13.448 557.346 12.768 557.874 12.224C558.418 11.68 559.034 11.312 559.722 11.12C560.426 10.912 561.17 10.808 561.954 10.808C562.802 10.808 563.586 10.904 564.306 11.096C565.042 11.288 565.722 11.64 566.346 12.152C566.97 12.648 567.402 13.288 567.642 14.072H565.314C565.298 14.056 565.194 13.936 565.002 13.712C564.186 13.024 563.17 12.68 561.954 12.68C561.298 12.68 560.682 12.792 560.106 13.016C559.53 13.24 559.242 13.632 559.242 14.192C559.242 15.072 559.914 15.584 561.258 15.728C561.706 15.792 562.122 15.84 562.506 15.872C563.274 15.92 563.93 16 564.474 16.112C565.034 16.224 565.586 16.416 566.13 16.688C566.674 16.944 567.09 17.328 567.378 17.84C567.666 18.352 567.81 18.992 567.81 19.76C567.81 20.4 567.65 20.968 567.33 21.464C567.01 21.944 566.578 22.32 566.034 22.592C565.506 22.848 564.954 23.032 564.378 23.144C563.818 23.272 563.234 23.336 562.626 23.336C561.282 23.336 560.042 23.024 558.906 22.4C557.77 21.776 557.042 20.872 556.722 19.688H559.05C559.13 20.008 559.378 20.312 559.794 20.6C560.226 20.888 560.642 21.088 561.042 21.2C561.474 21.344 562.002 21.416 562.626 21.416C563.058 21.416 563.474 21.384 563.874 21.32C564.29 21.24 564.682 21.072 565.05 20.816C565.434 20.544 565.626 20.192 565.626 19.76C565.626 19.184 565.434 18.784 565.05 18.56C564.682 18.32 564.17 18.16 563.514 18.08ZM579.932 16.304V23H577.748V11.144H579.932V13.328C579.996 13.136 580.132 12.896 580.34 12.608C580.676 12.064 581.188 11.672 581.876 11.432C582.58 11.176 583.308 11.048 584.06 11.048H587.036V13.232H584.012C582.7 13.232 581.692 13.448 580.988 13.88C580.284 14.296 579.932 15.104 579.932 16.304ZM595.095 10.856C596.951 10.856 598.423 11.48 599.511 12.728C600.599 13.96 601.143 15.496 601.143 17.336H591.279C591.311 18.12 591.551 18.856 591.999 19.544C592.447 20.216 593.023 20.688 593.727 20.96C594.191 21.168 594.719 21.272 595.311 21.272C596.015 21.272 596.711 21.136 597.399 20.864C598.087 20.576 598.567 20.16 598.839 19.616H600.999C600.871 20.336 600.503 20.984 599.895 21.56C599.287 22.12 598.607 22.552 597.855 22.856C597.167 23.144 596.319 23.288 595.311 23.288C593.519 23.288 592.031 22.696 590.847 21.512C589.663 20.328 589.071 18.848 589.071 17.072C589.071 15.296 589.639 13.816 590.775 12.632C591.911 11.448 593.351 10.856 595.095 10.856ZM595.095 12.728C594.167 12.728 593.375 12.968 592.719 13.448C592.079 13.928 591.647 14.616 591.423 15.512H598.719C598.447 14.632 597.999 13.952 597.375 13.472C596.751 12.976 595.991 12.728 595.095 12.728ZM610.342 18.08L607.798 17.792C606.662 17.68 605.726 17.336 604.99 16.76C604.27 16.168 603.91 15.336 603.91 14.264C603.91 13.448 604.174 12.768 604.702 12.224C605.246 11.68 605.862 11.312 606.55 11.12C607.254 10.912 607.998 10.808 608.782 10.808C609.63 10.808 610.414 10.904 611.134 11.096C611.87 11.288 612.55 11.64 613.174 12.152C613.798 12.648 614.23 13.288 614.47 14.072H612.142C612.126 14.056 612.022 13.936 611.83 13.712C611.014 13.024 609.998 12.68 608.782 12.68C608.126 12.68 607.51 12.792 606.934 13.016C606.358 13.24 606.07 13.632 606.07 14.192C606.07 15.072 606.742 15.584 608.086 15.728C608.534 15.792 608.95 15.84 609.334 15.872C610.102 15.92 610.758 16 611.302 16.112C611.862 16.224 612.414 16.416 612.958 16.688C613.502 16.944 613.918 17.328 614.206 17.84C614.494 18.352 614.638 18.992 614.638 19.76C614.638 20.4 614.478 20.968 614.158 21.464C613.838 21.944 613.406 22.32 612.862 22.592C612.334 22.848 611.782 23.032 611.206 23.144C610.646 23.272 610.062 23.336 609.454 23.336C608.11 23.336 606.87 23.024 605.734 22.4C604.598 21.776 603.87 20.872 603.55 19.688H605.878C605.958 20.008 606.206 20.312 606.622 20.6C607.054 20.888 607.47 21.088 607.87 21.2C608.302 21.344 608.83 21.416 609.454 21.416C609.886 21.416 610.302 21.384 610.702 21.32C611.118 21.24 611.51 21.072 611.878 20.816C612.262 20.544 612.454 20.192 612.454 19.76C612.454 19.184 612.262 18.784 611.878 18.56C611.51 18.32 610.998 18.16 610.342 18.08ZM623.361 10.856C625.217 10.856 626.689 11.48 627.777 12.728C628.865 13.96 629.409 15.496 629.409 17.336H619.545C619.577 18.12 619.817 18.856 620.265 19.544C620.713 20.216 621.289 20.688 621.993 20.96C622.457 21.168 622.985 21.272 623.577 21.272C624.281 21.272 624.977 21.136 625.665 20.864C626.353 20.576 626.833 20.16 627.105 19.616H629.265C629.137 20.336 628.769 20.984 628.161 21.56C627.553 22.12 626.873 22.552 626.121 22.856C625.433 23.144 624.585 23.288 623.577 23.288C621.785 23.288 620.297 22.696 619.113 21.512C617.929 20.328 617.337 18.848 617.337 17.072C617.337 15.296 617.905 13.816 619.041 12.632C620.177 11.448 621.617 10.856 623.361 10.856ZM623.361 12.728C622.433 12.728 621.641 12.968 620.985 13.448C620.345 13.928 619.913 14.616 619.689 15.512H626.985C626.713 14.632 626.265 13.952 625.641 13.472C625.017 12.976 624.257 12.728 623.361 12.728ZM635.104 16.304V23H632.92V11.144H635.104V13.328C635.168 13.136 635.304 12.896 635.512 12.608C635.848 12.064 636.36 11.672 637.048 11.432C637.752 11.176 638.48 11.048 639.232 11.048H642.208V13.232H639.184C637.872 13.232 636.864 13.448 636.16 13.88C635.456 14.296 635.104 15.104 635.104 16.304ZM656.384 11.144L650.888 23.216H649.136L643.544 11.144H645.992L650.072 20.288L654.128 11.144H656.384ZM664.212 10.856C666.068 10.856 667.54 11.48 668.628 12.728C669.716 13.96 670.26 15.496 670.26 17.336H660.396C660.428 18.12 660.668 18.856 661.116 19.544C661.564 20.216 662.14 20.688 662.844 20.96C663.308 21.168 663.836 21.272 664.428 21.272C665.132 21.272 665.828 21.136 666.516 20.864C667.204 20.576 667.684 20.16 667.956 19.616H670.116C669.988 20.336 669.62 20.984 669.012 21.56C668.404 22.12 667.724 22.552 666.972 22.856C666.284 23.144 665.436 23.288 664.428 23.288C662.636 23.288 661.148 22.696 659.964 21.512C658.78 20.328 658.188 18.848 658.188 17.072C658.188 15.296 658.756 13.816 659.892 12.632C661.028 11.448 662.468 10.856 664.212 10.856ZM664.212 12.728C663.284 12.728 662.492 12.968 661.836 13.448C661.196 13.928 660.764 14.616 660.54 15.512H667.836C667.564 14.632 667.116 13.952 666.492 13.472C665.868 12.976 665.108 12.728 664.212 12.728ZM683.084 23V20.96C683.036 21.04 682.9 21.24 682.676 21.56C682.228 22.12 681.652 22.552 680.948 22.856C680.244 23.144 679.516 23.288 678.764 23.288C677.004 23.288 675.588 22.696 674.516 21.512C673.444 20.312 672.908 18.832 672.908 17.072C672.908 15.28 673.444 13.8 674.516 12.632C675.604 11.448 677.02 10.856 678.764 10.856C679.516 10.856 680.244 10.992 680.948 11.264C681.652 11.536 682.22 11.944 682.652 12.488C682.876 12.776 683.02 12.984 683.084 13.112V5.336H685.268V23H683.084ZM683.132 17.072C683.132 15.856 682.764 14.856 682.028 14.072C681.308 13.272 680.356 12.872 679.172 12.872C677.956 12.872 676.98 13.272 676.244 14.072C675.524 14.872 675.164 15.872 675.164 17.072C675.164 18.288 675.532 19.296 676.268 20.096C677.02 20.88 677.988 21.272 679.172 21.272C680.372 21.272 681.332 20.872 682.052 20.072C682.772 19.256 683.132 18.256 683.132 17.072ZM689.635 23V19.592H692.419V23H689.635Z" fill="white"/>
<path d="M132.641 24.68H156.641V0.68H132.641V24.68Z"/>
</svg>
