<svg width="740" height="679" viewBox="0 0 740 679" fill="none" xmlns="http://www.w3.org/2000/svg">
<path d="M734 285.437L716.96 285.437L716.96 282.221L724.616 282.221L716.96 273.437L716.96 269.117L725.24 278.645L734 268.709L734 273.197L726.2 282.221L734 282.221L734 285.437ZM721.856 255.702L739.112 263.19L739.112 266.262L733.784 263.958L721.856 269.43L721.856 265.974L730.112 262.398L721.856 258.822L721.856 255.702ZM734 244.359L729.992 247.911L734 251.511L734 255.039L728 249.663L721.856 255.063L721.856 251.127L725.816 247.695L721.856 244.143L721.856 240.591L727.808 245.943L734 240.591L734 244.359ZM721.544 232.788C721.544 230.916 722.152 229.364 723.368 228.132C724.568 226.884 726.088 226.26 727.928 226.26C729.784 226.26 731.312 226.892 732.512 228.156C733.712 229.404 734.312 230.948 734.312 232.788C734.312 234.66 733.704 236.22 732.488 237.468C731.272 238.716 729.752 239.34 727.928 239.34C726.056 239.34 724.528 238.716 723.344 237.468C722.144 236.204 721.544 234.644 721.544 232.788ZM731.576 232.788C731.576 231.748 731.224 230.916 730.52 230.292C729.816 229.668 728.952 229.356 727.928 229.356C726.904 229.356 726.032 229.668 725.312 230.292C724.992 230.612 724.736 230.972 724.544 231.372C724.368 231.82 724.28 232.292 724.28 232.788C724.28 233.796 724.64 234.628 725.36 235.284C726.064 235.924 726.92 236.244 727.928 236.244C728.952 236.244 729.816 235.916 730.52 235.26C731.224 234.604 731.576 233.78 731.576 232.788ZM734 223.102L721.856 223.102L721.856 220.054L726.488 220.054L726.488 214.246L721.856 214.246L721.856 211.198L734 211.198L734 214.246L729.104 214.246L729.104 220.054L734 220.054L734 223.102ZM734 207.211L721.856 207.211L721.856 204.163L726.488 204.163L726.488 198.355L721.856 198.355L721.856 195.307L734 195.307L734 198.355L729.104 198.355L729.104 204.163L734 204.163L734 207.211ZM721.544 185.584C721.544 183.712 722.152 182.16 723.368 180.928C724.568 179.68 726.088 179.056 727.928 179.056C729.784 179.056 731.312 179.688 732.512 180.952C733.712 182.2 734.312 183.744 734.312 185.584C734.312 187.456 733.704 189.016 732.488 190.264C731.272 191.512 729.752 192.136 727.928 192.136C726.056 192.136 724.528 191.512 723.344 190.264C722.144 189 721.544 187.44 721.544 185.584ZM731.576 185.584C731.576 184.544 731.224 183.712 730.52 183.088C729.816 182.464 728.952 182.152 727.928 182.152C726.904 182.152 726.032 182.464 725.312 183.088C724.992 183.408 724.736 183.768 724.544 184.168C724.368 184.616 724.28 185.088 724.28 185.584C724.28 186.592 724.64 187.424 725.36 188.08C726.064 188.72 726.92 189.04 727.928 189.04C728.952 189.04 729.816 188.712 730.52 188.056C731.224 187.4 731.576 186.576 731.576 185.584ZM721.544 170.355C721.544 168.403 722.16 166.859 723.392 165.723C724.608 164.571 726.176 163.995 728.096 163.995L728.432 163.995L728.432 173.643C729.392 173.595 730.192 173.235 730.832 172.563C731.456 171.891 731.768 171.075 731.768 170.115C731.768 169.619 731.712 169.203 731.6 168.867C731.392 168.099 731.008 167.531 730.448 167.163L730.448 164.139C731.232 164.267 731.92 164.651 732.512 165.291C733.104 165.915 733.56 166.643 733.88 167.475C734.168 168.211 734.312 169.091 734.312 170.115C734.312 172.035 733.72 173.619 732.536 174.867C731.336 176.099 729.8 176.715 727.928 176.715C726.04 176.715 724.504 176.123 723.32 174.939C722.136 173.739 721.544 172.211 721.544 170.355ZM723.92 170.355C723.92 171.155 724.128 171.835 724.544 172.395C724.96 172.955 725.552 173.339 726.32 173.547L726.32 167.211C725.552 167.435 724.96 167.819 724.544 168.363C724.128 168.907 723.92 169.571 723.92 170.355ZM722.192 148.231C722.192 146.407 722.744 144.967 723.848 143.911C724.952 142.855 726.408 142.327 728.216 142.327C730.072 142.327 731.552 142.951 732.656 144.199C733.76 145.447 734.312 146.999 734.312 148.855C734.312 150.919 733.688 152.527 732.44 153.679C731.176 154.815 729.528 155.383 727.496 155.383C726.2 155.383 725.104 155.335 724.208 155.239C723.312 155.143 722.432 154.951 721.568 154.663C720.688 154.375 719.968 153.975 719.408 153.463C718.848 152.935 718.36 152.239 717.944 151.375C717.512 150.511 717.2 149.463 717.008 148.231L716.216 143.407L718.904 143.407L719.672 148.183C719.912 149.687 720.36 150.759 721.016 151.399C721.656 152.039 722.696 152.431 724.136 152.575C722.84 151.791 722.192 150.343 722.192 148.231ZM731.624 148.855C731.624 147.799 731.32 146.967 730.712 146.359C730.088 145.735 729.264 145.423 728.24 145.423C727.2 145.423 726.384 145.743 725.792 146.383C725.184 147.007 724.88 147.831 724.88 148.855C724.88 149.895 725.184 150.727 725.792 151.351C726.4 151.975 727.216 152.287 728.24 152.287C729.296 152.287 730.128 151.975 730.736 151.351C731.328 150.711 731.624 149.879 731.624 148.855ZM728.48 138.447L721.856 137.799L721.856 128.007L734 128.007L734 131.055L724.472 131.055L724.472 135.303L728.792 135.711C729.608 135.775 730.304 135.879 730.88 136.023C731.44 136.151 731.992 136.359 732.536 136.647C733.064 136.935 733.464 137.351 733.736 137.895C733.992 138.439 734.12 139.103 734.12 139.887L734.12 140.703L731.336 140.703L731.336 140.415C731.336 140.063 731.288 139.767 731.192 139.527C731.048 139.079 730.608 138.783 729.872 138.639C729.456 138.559 728.992 138.495 728.48 138.447ZM734 115.007L732.08 115.007C732.256 115.119 732.44 115.239 732.632 115.367C733.72 116.247 734.264 117.495 734.264 119.111C734.264 120.871 733.648 122.263 732.416 123.287C731.184 124.311 729.688 124.823 727.928 124.823C726.136 124.823 724.632 124.303 723.416 123.263C722.2 122.207 721.592 120.815 721.592 119.087C721.592 118.031 721.872 117.063 722.432 116.183C722.784 115.703 723.2 115.319 723.68 115.031L721.856 115.031L721.856 111.959L734 111.959L734 115.007ZM727.928 114.983C726.888 114.983 726.024 115.287 725.336 115.895C724.632 116.487 724.28 117.287 724.28 118.295C724.28 119.335 724.632 120.167 725.336 120.791C726.024 121.399 726.888 121.703 727.928 121.703C729.032 121.703 729.896 121.391 730.52 120.767C730.872 120.463 731.128 120.103 731.288 119.687C731.48 119.271 731.576 118.807 731.576 118.295C731.576 117.287 731.224 116.487 730.52 115.895C729.8 115.287 728.936 114.983 727.928 114.983ZM734 101.016L728.672 101.016L734 106.08L734 109.992L727.76 104.04L721.856 109.752L721.856 105.84L726.872 101.016L721.856 101.016L721.856 98.0882L726.848 98.0882L721.856 93.2882L721.856 89.4002L727.688 95.0402L734 89.0402L734 93.0482L728.696 98.0882L734 98.0882L734 101.016ZM721.544 81.8546C721.544 79.9026 722.16 78.3586 723.392 77.2226C724.608 76.0706 726.176 75.4946 728.096 75.4946L728.432 75.4946L728.432 85.1426C729.392 85.0946 730.192 84.7346 730.832 84.0626C731.456 83.3906 731.768 82.5746 731.768 81.6146C731.768 81.1186 731.712 80.7026 731.6 80.3666C731.392 79.5986 731.008 79.0306 730.448 78.6626L730.448 75.6386C731.232 75.7666 731.92 76.1506 732.512 76.7906C733.104 77.4146 733.56 78.1426 733.88 78.9746C734.168 79.7106 734.312 80.5906 734.312 81.6146C734.312 83.5346 733.72 85.1186 732.536 86.3666C731.336 87.5986 729.8 88.2146 727.928 88.2146C726.04 88.2146 724.504 87.6226 723.32 86.4386C722.136 85.2386 721.544 83.7106 721.544 81.8546ZM723.92 81.8546C723.92 82.6546 724.128 83.3346 724.544 83.8946C724.96 84.4546 725.552 84.8386 726.32 85.0466L726.32 78.7106C725.552 78.9346 724.96 79.3186 724.544 79.8626C724.128 80.4066 723.92 81.0706 723.92 81.8546ZM734 72.422L721.856 72.422L721.856 69.374L726.488 69.374L726.488 63.566L721.856 63.566L721.856 60.518L734 60.518L734 63.566L729.104 63.566L729.104 69.374L734 69.374L734 72.422ZM725.864 45.1314L725.864 48.1794C725.432 48.4674 725.12 48.7234 724.928 48.9474C724.736 49.2194 724.576 49.5074 724.448 49.8114C724.32 50.1954 724.256 50.6114 724.256 51.0594C724.256 52.0354 724.624 52.8114 725.36 53.3874C726.08 53.9474 726.936 54.2274 727.928 54.2274C729.016 54.2274 729.88 53.9314 730.52 53.3394C731.24 52.7634 731.6 51.9954 731.6 51.0354C731.6 50.5554 731.528 50.1314 731.384 49.7634C731.176 49.1234 730.84 48.6594 730.376 48.3714C730.312 48.3234 730.232 48.2674 730.136 48.2034L729.992 48.1314L729.992 45.1314C730.792 45.1954 731.544 45.5394 732.248 46.1634C732.952 46.7874 733.472 47.5074 733.808 48.3234C734.144 49.0754 734.312 49.9954 734.312 51.0834C734.312 52.8914 733.696 54.3874 732.464 55.5714C731.232 56.7554 729.72 57.3474 727.928 57.3474C726.088 57.3474 724.568 56.7634 723.368 55.5954C722.152 54.4114 721.544 52.9154 721.544 51.1074C721.544 49.9234 721.808 48.8114 722.336 47.7714C722.848 46.7314 723.608 45.9874 724.616 45.5394C725.144 45.3154 725.56 45.1794 725.864 45.1314ZM734 38.8265L724.472 38.8265L724.472 43.5545L721.856 43.5545L721.856 31.0745L724.472 31.0745L724.472 35.7785L734 35.7785L734 38.8265ZM734 28.383L721.856 28.383L721.856 21.327C721.856 20.143 722.12 19.143 722.648 18.327C723.16 17.511 723.968 17.103 725.072 17.103C726.08 17.103 726.848 17.495 727.376 18.279C727.504 18.439 727.616 18.663 727.712 18.951C727.776 18.679 727.888 18.399 728.048 18.111C728.192 17.887 728.384 17.655 728.624 17.415C729.12 16.967 729.744 16.743 730.496 16.743C731.68 16.743 732.56 17.183 733.136 18.063C733.712 18.943 734 20.015 734 21.279L734 28.383ZM724.184 21.807L724.184 25.335L726.728 25.335L726.728 21.807C726.728 20.687 726.288 20.127 725.408 20.127C724.592 20.127 724.184 20.687 724.184 21.807ZM728.96 21.687L728.96 25.335L731.672 25.335L731.672 21.687C731.672 20.471 731.192 19.863 730.232 19.863C729.384 19.863 728.96 20.471 728.96 21.687ZM721.544 7.69384C721.544 5.82184 722.152 4.26984 723.368 3.03784C724.568 1.78984 726.088 1.16584 727.928 1.16584C729.784 1.16584 731.312 1.79784 732.512 3.06184C733.712 4.30984 734.312 5.85384 734.312 7.69384C734.312 9.56584 733.704 11.1258 732.488 12.3738C731.272 13.6218 729.752 14.2458 727.928 14.2458C726.056 14.2458 724.528 13.6218 723.344 12.3738C722.144 11.1098 721.544 9.54984 721.544 7.69384ZM731.576 7.69384C731.576 6.65384 731.224 5.82184 730.52 5.19784C729.816 4.57384 728.952 4.26184 727.928 4.26184C726.904 4.26184 726.032 4.57384 725.312 5.19784C724.992 5.51784 724.736 5.87784 724.544 6.27784C724.368 6.72584 724.28 7.19784 724.28 7.69384C724.28 8.70184 724.64 9.53384 725.36 10.1898C726.064 10.8298 726.92 11.1498 727.928 11.1498C728.952 11.1498 729.816 10.8218 730.52 10.1658C731.224 9.50984 731.576 8.68584 731.576 7.69384Z" fill="white"/>
<path d="M4.704 596L4.704 561.92H11.136L11.136 577.232L28.704 561.92H37.344L18.288 578.48L38.16 596H29.184L11.136 580.4L11.136 596H4.704ZM64.1738 571.712L49.1978 606.224H43.0538L47.6618 595.568L36.7178 571.712H43.6298L50.7818 588.224L57.9338 571.712H64.1738ZM86.8601 596L79.7561 587.984L72.5561 596H65.5001L76.2521 584L65.4521 571.712H73.3241L80.1881 579.632L87.2921 571.712H94.3961L83.6921 583.616L94.3961 596H86.8601ZM110.003 571.088C113.747 571.088 116.851 572.304 119.315 574.736C121.811 577.136 123.059 580.176 123.059 583.856C123.059 587.568 121.795 590.624 119.267 593.024C116.771 595.424 113.683 596.624 110.003 596.624C106.259 596.624 103.139 595.408 100.643 592.976C98.1469 590.544 96.8989 587.504 96.8989 583.856C96.8989 580.112 98.1469 577.056 100.643 574.688C103.171 572.288 106.291 571.088 110.003 571.088ZM110.003 591.152C112.083 591.152 113.747 590.448 114.995 589.04C116.243 587.632 116.867 585.904 116.867 583.856C116.867 581.808 116.243 580.064 114.995 578.624C114.355 577.984 113.635 577.472 112.835 577.088C111.939 576.736 110.995 576.56 110.003 576.56C107.987 576.56 106.323 577.28 105.011 578.72C103.731 580.128 103.091 581.84 103.091 583.856C103.091 585.904 103.747 587.632 105.059 589.04C106.371 590.448 108.019 591.152 110.003 591.152ZM129.375 596V571.712H135.471V580.976H147.087V571.712H153.183V596H147.087V586.208H135.471V596H129.375ZM161.156 596V571.712H167.252V580.976H178.868V571.712H184.964V596H178.868V586.208H167.252V596H161.156ZM204.409 571.088C208.153 571.088 211.257 572.304 213.721 574.736C216.217 577.136 217.465 580.176 217.465 583.856C217.465 587.568 216.201 590.624 213.673 593.024C211.177 595.424 208.089 596.624 204.409 596.624C200.665 596.624 197.545 595.408 195.049 592.976C192.553 590.544 191.305 587.504 191.305 583.856C191.305 580.112 192.553 577.056 195.049 574.688C197.577 572.288 200.697 571.088 204.409 571.088ZM204.409 591.152C206.489 591.152 208.153 590.448 209.401 589.04C210.649 587.632 211.273 585.904 211.273 583.856C211.273 581.808 210.649 580.064 209.401 578.624C208.761 577.984 208.041 577.472 207.241 577.088C206.345 576.736 205.401 576.56 204.409 576.56C202.393 576.56 200.729 577.28 199.417 578.72C198.137 580.128 197.497 581.84 197.497 583.856C197.497 585.904 198.153 587.632 199.465 589.04C200.777 590.448 202.425 591.152 204.409 591.152ZM234.869 571.088C238.773 571.088 241.861 572.32 244.133 574.784C246.437 577.216 247.589 580.352 247.589 584.192V584.864H228.293C228.389 586.784 229.109 588.384 230.453 589.664C231.797 590.912 233.429 591.536 235.349 591.536C236.341 591.536 237.173 591.424 237.845 591.2C239.381 590.784 240.517 590.016 241.253 588.896H247.301C247.045 590.464 246.277 591.84 244.997 593.024C243.749 594.208 242.293 595.12 240.629 595.76C239.157 596.336 237.397 596.624 235.349 596.624C231.509 596.624 228.341 595.44 225.845 593.072C223.381 590.672 222.149 587.6 222.149 583.856C222.149 580.08 223.333 577.008 225.701 574.64C228.101 572.272 231.157 571.088 234.869 571.088ZM234.869 575.84C233.269 575.84 231.909 576.256 230.789 577.088C229.669 577.92 228.901 579.104 228.485 580.64H241.157C240.709 579.104 239.941 577.92 238.853 577.088C237.765 576.256 236.437 575.84 234.869 575.84ZM279.117 572.384C282.765 572.384 285.645 573.488 287.757 575.696C289.869 577.904 290.925 580.816 290.925 584.432C290.925 588.144 289.677 591.104 287.181 593.312C284.685 595.52 281.581 596.624 277.869 596.624C273.741 596.624 270.525 595.376 268.221 592.88C265.949 590.352 264.813 587.056 264.813 582.992C264.813 580.4 264.909 578.208 265.101 576.416C265.293 574.624 265.677 572.864 266.253 571.136C266.829 569.376 267.629 567.936 268.653 566.816C269.709 565.696 271.101 564.72 272.829 563.888C274.557 563.024 276.653 562.4 279.117 562.016L288.765 560.432V565.808L279.213 567.344C276.205 567.824 274.061 568.72 272.781 570.032C271.501 571.312 270.717 573.392 270.429 576.272C271.997 573.68 274.893 572.384 279.117 572.384ZM277.869 591.248C279.981 591.248 281.645 590.64 282.861 589.424C284.109 588.176 284.733 586.528 284.733 584.48C284.733 582.4 284.093 580.768 282.813 579.584C281.565 578.368 279.917 577.76 277.869 577.76C275.789 577.76 274.125 578.368 272.877 579.584C271.629 580.8 271.005 582.432 271.005 584.48C271.005 586.592 271.629 588.256 272.877 589.472C274.157 590.656 275.821 591.248 277.869 591.248ZM298.684 584.96L299.98 571.712H319.564V596H313.468V576.944H304.972L304.156 585.584C304.028 587.216 303.82 588.608 303.532 589.76C303.276 590.88 302.86 591.984 302.284 593.072C301.708 594.128 300.876 594.928 299.788 595.472C298.7 595.984 297.372 596.24 295.804 596.24H294.172V590.672H294.748C295.452 590.672 296.044 590.576 296.524 590.384C297.42 590.096 298.012 589.216 298.3 587.744C298.46 586.912 298.588 585.984 298.684 584.96ZM345.563 596V592.16C345.339 592.512 345.099 592.88 344.843 593.264C343.083 595.44 340.587 596.528 337.355 596.528C333.835 596.528 331.051 595.296 329.003 592.832C326.955 590.368 325.931 587.376 325.931 583.856C325.931 580.272 326.971 577.264 329.051 574.832C331.163 572.4 333.947 571.184 337.403 571.184C339.515 571.184 341.451 571.744 343.211 572.864C344.171 573.568 344.939 574.4 345.515 575.36V571.712H351.659V596H345.563ZM345.611 583.856C345.611 581.776 345.003 580.048 343.787 578.672C342.603 577.264 341.003 576.56 338.987 576.56C336.907 576.56 335.243 577.264 333.995 578.672C332.779 580.048 332.171 581.776 332.171 583.856C332.171 586.064 332.795 587.792 334.043 589.04C334.651 589.744 335.371 590.256 336.203 590.576C337.035 590.96 337.963 591.152 338.987 591.152C341.003 591.152 342.603 590.448 343.787 589.04C345.003 587.6 345.611 585.872 345.611 583.856ZM373.546 596V585.344L363.418 596H355.594L367.498 583.52L356.074 571.712H363.898L373.546 581.744V571.712H379.402V581.696L389.002 571.712H396.778L385.498 583.376L397.498 596H389.482L379.402 585.392V596L373.546 596ZM411.869 571.088C415.773 571.088 418.861 572.32 421.133 574.784C423.437 577.216 424.589 580.352 424.589 584.192V584.864H405.293C405.389 586.784 406.109 588.384 407.453 589.664C408.797 590.912 410.429 591.536 412.349 591.536C413.341 591.536 414.173 591.424 414.845 591.2C416.381 590.784 417.517 590.016 418.253 588.896H424.301C424.045 590.464 423.277 591.84 421.997 593.024C420.749 594.208 419.293 595.12 417.629 595.76C416.157 596.336 414.397 596.624 412.349 596.624C408.509 596.624 405.341 595.44 402.845 593.072C400.381 590.672 399.149 587.6 399.149 583.856C399.149 580.08 400.333 577.008 402.701 574.64C405.101 572.272 408.157 571.088 411.869 571.088ZM411.869 575.84C410.269 575.84 408.909 576.256 407.789 577.088C406.669 577.92 405.901 579.104 405.485 580.64H418.157C417.709 579.104 416.941 577.92 415.853 577.088C414.765 576.256 413.437 575.84 411.869 575.84ZM430.734 596V571.712H436.83V580.976H448.446V571.712H454.542V596H448.446V586.208H436.83V596H430.734ZM485.315 579.728H479.219C478.643 578.864 478.131 578.24 477.683 577.856C477.139 577.472 476.563 577.152 475.955 576.896C475.187 576.64 474.355 576.512 473.459 576.512C471.507 576.512 469.955 577.248 468.803 578.72C467.683 580.16 467.123 581.872 467.123 583.856C467.123 586.032 467.715 587.76 468.899 589.04C470.051 590.48 471.587 591.2 473.507 591.2C474.467 591.2 475.315 591.056 476.051 590.768C477.331 590.352 478.259 589.68 478.835 588.752C478.931 588.624 479.043 588.464 479.171 588.272L479.315 587.984H485.315C485.187 589.584 484.499 591.088 483.251 592.496C482.003 593.904 480.563 594.944 478.931 595.616C477.427 596.288 475.587 596.624 473.411 596.624C469.795 596.624 466.803 595.392 464.435 592.928C462.067 590.464 460.883 587.44 460.883 583.856C460.883 580.176 462.051 577.136 464.387 574.736C466.755 572.304 469.747 571.088 473.363 571.088C475.731 571.088 477.955 571.616 480.035 572.672C482.115 573.696 483.603 575.216 484.499 577.232C484.947 578.288 485.219 579.12 485.315 579.728ZM497.925 596V576.944H488.469V571.712H513.429V576.944H504.021V596H497.925ZM518.812 596V571.712H532.924C535.292 571.712 537.292 572.24 538.924 573.296C540.556 574.32 541.372 575.936 541.372 578.144C541.372 580.16 540.588 581.696 539.02 582.752C538.7 583.008 538.252 583.232 537.676 583.424C538.22 583.552 538.78 583.776 539.356 584.096C539.804 584.384 540.268 584.768 540.748 585.248C541.644 586.24 542.092 587.488 542.092 588.992C542.092 591.36 541.212 593.12 539.452 594.272C537.692 595.424 535.548 596 533.02 596H518.812ZM531.964 576.368H524.908V581.456H531.964C534.204 581.456 535.324 580.576 535.324 578.816C535.324 577.184 534.204 576.368 531.964 576.368ZM532.204 585.92H524.908V591.344H532.204C534.636 591.344 535.852 590.384 535.852 588.464C535.852 586.768 534.636 585.92 532.204 585.92ZM560.19 571.088C563.934 571.088 567.038 572.304 569.502 574.736C571.998 577.136 573.246 580.176 573.246 583.856C573.246 587.568 571.982 590.624 569.454 593.024C566.958 595.424 563.87 596.624 560.19 596.624C556.446 596.624 553.326 595.408 550.83 592.976C548.334 590.544 547.086 587.504 547.086 583.856C547.086 580.112 548.334 577.056 550.83 574.688C553.358 572.288 556.478 571.088 560.19 571.088ZM560.19 591.152C562.27 591.152 563.934 590.448 565.182 589.04C566.43 587.632 567.054 585.904 567.054 583.856C567.054 581.808 566.43 580.064 565.182 578.624C564.542 577.984 563.822 577.472 563.022 577.088C562.126 576.736 561.182 576.56 560.19 576.56C558.174 576.56 556.51 577.28 555.198 578.72C553.918 580.128 553.278 581.84 553.278 583.856C553.278 585.904 553.934 587.632 555.246 589.04C556.558 590.448 558.206 591.152 560.19 591.152Z" fill="white"/>
<path d="M16.344 642L14.112 637.2H4.704L2.496 642H0.912L8.832 624.864H10.056L18 642H16.344ZM5.376 635.76H13.464L9.408 627.024L5.376 635.76ZM22.8021 635.424V642H21.2901V630.432H22.8021V632.832C23.3461 631.2 24.7941 630.384 27.1461 630.384H30.1221V631.872H27.1221C24.2421 631.872 22.8021 633.056 22.8021 635.424ZM41.8341 640.608V642H39.3861C38.0421 642 37.0341 641.688 36.3621 641.064C35.6901 640.424 35.3541 639.432 35.3541 638.088V631.8H31.6341V630.432H35.3541V624.96H36.8661V630.432H41.8341V631.8H36.8661V637.848C36.8661 638.84 37.0741 639.552 37.4901 639.984C37.9221 640.4 38.6341 640.608 39.6261 640.608H41.8341ZM50.2101 630.144C51.9541 630.144 53.3461 630.72 54.3861 631.872C55.4421 633.008 55.9941 634.448 56.0421 636.192H45.9381V636.216C45.9381 637.528 46.3621 638.632 47.2101 639.528C48.0581 640.424 49.1301 640.872 50.4261 640.872C51.9781 640.872 53.1861 640.392 54.0501 639.432C54.2421 639.176 54.3701 639 54.4341 638.904H55.8981C55.5141 640.216 54.4821 641.208 52.8021 641.88C52.1941 642.152 51.4021 642.288 50.4261 642.288C48.6981 642.288 47.2581 641.704 46.1061 640.536C44.9701 639.368 44.4021 637.928 44.4021 636.216C44.4021 634.488 44.9461 633.048 46.0341 631.896C47.1381 630.728 48.5301 630.144 50.2101 630.144ZM50.2101 631.464C49.1381 631.464 48.2261 631.776 47.4741 632.4C46.7381 633.008 46.2581 633.84 46.0341 634.896H54.3861C54.1621 633.824 53.6821 632.984 52.9461 632.376C52.2101 631.768 51.2981 631.464 50.2101 631.464ZM59.8224 642L59.8224 624.336H61.3344L61.3344 642H59.8224ZM72.3548 635.808V634.512H84.7388V635.808H72.3548ZM96.8556 637.08L97.5516 630.432H106V642H104.488V631.8H98.7516L98.1996 637.152C98.1516 637.744 98.0956 638.232 98.0316 638.616C97.9676 639 97.8556 639.44 97.6956 639.936C97.5516 640.432 97.3596 640.824 97.1196 641.112C96.8796 641.4 96.5516 641.648 96.1356 641.856C95.7196 642.048 95.2316 642.144 94.6716 642.144H94.1916V640.752H94.4796C95.1516 640.752 95.6396 640.592 95.9436 640.272C96.2476 639.952 96.4716 639.448 96.6156 638.76C96.7436 638.008 96.8236 637.448 96.8556 637.08ZM110.751 642V630.432H112.263V640.008L119.943 630.432H121.455V642H119.943V632.4L112.263 642H110.751ZM134.5 640.632V631.8H128.74L128.308 635.712C128.18 636.816 128.02 637.816 127.828 638.712C127.636 639.544 127.396 640.184 127.108 640.632H134.5ZM125.62 645.576H124.252V640.632H125.596C126.22 639.88 126.668 638.2 126.94 635.592L127.516 630.432H136.012V640.632H138.148V645.576H136.78V642H125.62V645.576ZM145.999 630.144C147.743 630.144 149.135 630.72 150.175 631.872C151.231 633.008 151.783 634.448 151.831 636.192H141.727V636.216C141.727 637.528 142.151 638.632 142.999 639.528C143.847 640.424 144.919 640.872 146.215 640.872C147.767 640.872 148.975 640.392 149.839 639.432C150.031 639.176 150.159 639 150.223 638.904H151.687C151.303 640.216 150.271 641.208 148.591 641.88C147.983 642.152 147.191 642.288 146.215 642.288C144.487 642.288 143.047 641.704 141.895 640.536C140.759 639.368 140.191 637.928 140.191 636.216C140.191 634.488 140.735 633.048 141.823 631.896C142.927 630.728 144.319 630.144 145.999 630.144ZM145.999 631.464C144.927 631.464 144.015 631.776 143.263 632.4C142.527 633.008 142.047 633.84 141.823 634.896H150.175C149.951 633.824 149.471 632.984 148.735 632.376C147.999 631.768 147.087 631.464 145.999 631.464ZM157.052 639.576V647.376H155.564V630.432H157.052V632.904C157.404 632.056 158.02 631.384 158.9 630.888C159.78 630.392 160.7 630.144 161.66 630.144C163.388 630.144 164.78 630.728 165.836 631.896C166.892 633.064 167.42 634.504 167.42 636.216C167.42 637.944 166.876 639.392 165.788 640.56C164.716 641.712 163.34 642.288 161.66 642.288C160.332 642.288 159.244 641.92 158.396 641.184C157.756 640.704 157.308 640.168 157.052 639.576ZM157.028 636.216C157.028 637.528 157.444 638.632 158.276 639.528C159.108 640.408 160.164 640.848 161.444 640.848C162.756 640.848 163.82 640.4 164.636 639.504C165.468 638.608 165.884 637.512 165.884 636.216C165.884 634.888 165.468 633.784 164.636 632.904C163.804 632.008 162.74 631.56 161.444 631.56C160.148 631.56 159.084 632.016 158.252 632.928C157.436 633.824 157.028 634.92 157.028 636.216ZM177.782 642V630.432H183.902C185.006 630.432 185.918 630.672 186.638 631.152C187.358 631.632 187.718 632.392 187.718 633.432C187.718 634.04 187.542 634.592 187.19 635.088C186.838 635.568 186.374 635.872 185.798 636C186.502 636.128 187.07 636.44 187.502 636.936C187.934 637.416 188.15 638.008 188.15 638.712C188.15 639.832 187.75 640.664 186.95 641.208C186.15 641.736 185.158 642 183.974 642H177.782ZM183.926 631.776H179.294V635.4H183.878C185.446 635.4 186.23 634.776 186.23 633.528C186.23 632.36 185.462 631.776 183.926 631.776ZM184.022 636.744H179.294V640.656H183.998C185.726 640.656 186.59 639.992 186.59 638.664C186.59 637.384 185.734 636.744 184.022 636.744ZM198.595 642V630.432H208.819V642H207.307V631.8H200.107V642H198.595ZM215.059 639.576V647.376H213.571V630.432H215.059V632.904C215.411 632.056 216.027 631.384 216.907 630.888C217.787 630.392 218.707 630.144 219.667 630.144C221.395 630.144 222.787 630.728 223.843 631.896C224.899 633.064 225.427 634.504 225.427 636.216C225.427 637.944 224.883 639.392 223.795 640.56C222.723 641.712 221.347 642.288 219.667 642.288C218.339 642.288 217.251 641.92 216.403 641.184C215.763 640.704 215.315 640.168 215.059 639.576ZM215.035 636.216C215.035 637.528 215.451 638.632 216.283 639.528C217.115 640.408 218.171 640.848 219.451 640.848C220.763 640.848 221.827 640.4 222.643 639.504C223.475 638.608 223.891 637.512 223.891 636.216C223.891 634.888 223.475 633.784 222.643 632.904C221.811 632.008 220.747 631.56 219.451 631.56C218.155 631.56 217.091 632.016 216.259 632.928C215.443 633.824 215.035 634.92 215.035 636.216ZM234.433 630.144C236.145 630.144 237.569 630.736 238.705 631.92C239.857 633.088 240.433 634.52 240.433 636.216C240.433 637.928 239.857 639.368 238.705 640.536C237.553 641.704 236.129 642.288 234.433 642.288C232.737 642.288 231.313 641.696 230.161 640.512C229.009 639.328 228.433 637.896 228.433 636.216C228.433 634.52 229.009 633.088 230.161 631.92C231.329 630.736 232.753 630.144 234.433 630.144ZM234.433 640.872C235.745 640.872 236.817 640.424 237.649 639.528C238.481 638.632 238.897 637.528 238.897 636.216C238.897 634.888 238.473 633.776 237.625 632.88C236.793 631.984 235.729 631.536 234.433 631.536C233.137 631.536 232.073 631.992 231.241 632.904C230.409 633.816 229.993 634.92 229.993 636.216C229.993 637.528 230.409 638.632 231.241 639.528C232.089 640.424 233.153 640.872 234.433 640.872ZM244.298 642V630.432H245.81V640.008L253.49 630.432H255.002V642H253.49V632.4L245.81 642H244.298ZM264.255 640.896C266.607 640.896 267.783 640.168 267.783 638.712C267.783 637.416 266.727 636.768 264.615 636.768H262.767V635.424H264.639C266.527 635.424 267.471 634.784 267.471 633.504C267.471 632.176 266.383 631.512 264.207 631.512C262.879 631.512 261.823 631.904 261.039 632.688C260.847 632.896 260.671 633.136 260.511 633.408H259.023C259.327 632.352 259.975 631.544 260.967 630.984C261.975 630.408 263.063 630.12 264.231 630.12C265.031 630.12 265.759 630.216 266.415 630.408C267.087 630.584 267.679 630.936 268.191 631.464C268.703 631.976 268.959 632.64 268.959 633.456C268.959 634.112 268.759 634.672 268.359 635.136C267.975 635.6 267.463 635.904 266.823 636.048C267.559 636.16 268.159 636.448 268.623 636.912C269.103 637.376 269.343 637.968 269.343 638.688C269.343 639.952 268.839 640.872 267.831 641.448C266.823 642.008 265.631 642.288 264.255 642.288C263.439 642.288 262.647 642.168 261.879 641.928C261.127 641.688 260.447 641.288 259.839 640.728C259.231 640.152 258.847 639.472 258.687 638.688H260.223C260.559 639.424 261.095 639.976 261.831 640.344C262.583 640.712 263.391 640.896 264.255 640.896ZM273.337 642V630.432H279.457C280.561 630.432 281.473 630.672 282.193 631.152C282.913 631.632 283.273 632.392 283.273 633.432C283.273 634.04 283.097 634.592 282.745 635.088C282.393 635.568 281.929 635.872 281.353 636C282.057 636.128 282.625 636.44 283.057 636.936C283.489 637.416 283.705 638.008 283.705 638.712C283.705 639.832 283.305 640.664 282.505 641.208C281.705 641.736 280.713 642 279.529 642H273.337ZM279.481 631.776H274.849V635.4H279.433C281.001 635.4 281.785 634.776 281.785 633.528C281.785 632.36 281.017 631.776 279.481 631.776ZM279.577 636.744H274.849V640.656H279.553C281.281 640.656 282.145 639.992 282.145 638.664C282.145 637.384 281.289 636.744 279.577 636.744ZM292.793 630.144C294.505 630.144 295.929 630.736 297.065 631.92C298.217 633.088 298.793 634.52 298.793 636.216C298.793 637.928 298.217 639.368 297.065 640.536C295.913 641.704 294.489 642.288 292.793 642.288C291.097 642.288 289.673 641.696 288.521 640.512C287.369 639.328 286.793 637.896 286.793 636.216C286.793 634.52 287.369 633.088 288.521 631.92C289.689 630.736 291.113 630.144 292.793 630.144ZM292.793 640.872C294.105 640.872 295.177 640.424 296.009 639.528C296.841 638.632 297.257 637.528 297.257 636.216C297.257 634.888 296.833 633.776 295.985 632.88C295.153 631.984 294.089 631.536 292.793 631.536C291.497 631.536 290.433 631.992 289.601 632.904C288.769 633.816 288.353 634.92 288.353 636.216C288.353 637.528 288.769 638.632 289.601 639.528C290.449 640.424 291.513 640.872 292.793 640.872ZM310.844 640.632V631.8H305.084L304.652 635.712C304.524 636.816 304.364 637.816 304.172 638.712C303.98 639.544 303.74 640.184 303.452 640.632H310.844ZM301.964 645.576H300.596V640.632H301.94C302.564 639.88 303.012 638.2 303.284 635.592L303.86 630.432H312.356V640.632H314.492V645.576H313.124V642H301.964V645.576ZM327.719 633.84H326.207C326.095 633.616 325.951 633.384 325.775 633.144C324.895 632.072 323.735 631.536 322.295 631.536C321.047 631.536 320.031 632 319.247 632.928C318.479 633.856 318.095 634.952 318.095 636.216C318.095 637.544 318.495 638.64 319.295 639.504C320.047 640.416 321.055 640.872 322.319 640.872C323.167 640.872 323.951 640.68 324.671 640.296C325.407 639.896 325.927 639.328 326.231 638.592H327.719C327.415 639.744 326.743 640.648 325.703 641.304C324.679 641.96 323.551 642.288 322.319 642.288C320.655 642.288 319.271 641.696 318.167 640.512C317.079 639.312 316.535 637.88 316.535 636.216C316.535 634.52 317.079 633.088 318.167 631.92C319.255 630.736 320.631 630.144 322.295 630.144C323.351 630.144 324.319 630.368 325.199 630.816C326.079 631.248 326.767 631.896 327.263 632.76C327.503 633.256 327.655 633.616 327.719 633.84ZM334.711 642V631.8H329.671V630.432H341.263V631.8H336.223V642H334.711ZM344.61 642V630.432H350.73C351.834 630.432 352.746 630.672 353.466 631.152C354.186 631.632 354.546 632.392 354.546 633.432C354.546 634.04 354.37 634.592 354.018 635.088C353.666 635.568 353.202 635.872 352.626 636C353.33 636.128 353.898 636.44 354.33 636.936C354.762 637.416 354.978 638.008 354.978 638.712C354.978 639.832 354.578 640.664 353.778 641.208C352.978 641.736 351.986 642 350.802 642H344.61ZM350.754 631.776H346.122V635.4H350.706C352.274 635.4 353.058 634.776 353.058 633.528C353.058 632.36 352.29 631.776 350.754 631.776ZM350.85 636.744H346.122V640.656H350.826C352.554 640.656 353.418 639.992 353.418 638.664C353.418 637.384 352.562 636.744 350.85 636.744ZM363.874 630.144C365.618 630.144 367.01 630.72 368.05 631.872C369.106 633.008 369.658 634.448 369.706 636.192L359.602 636.192V636.216C359.602 637.528 360.026 638.632 360.874 639.528C361.722 640.424 362.794 640.872 364.09 640.872C365.642 640.872 366.85 640.392 367.714 639.432C367.906 639.176 368.034 639 368.098 638.904H369.562C369.178 640.216 368.146 641.208 366.466 641.88C365.858 642.152 365.066 642.288 364.09 642.288C362.362 642.288 360.922 641.704 359.77 640.536C358.634 639.368 358.066 637.928 358.066 636.216C358.066 634.488 358.61 633.048 359.698 631.896C360.802 630.728 362.194 630.144 363.874 630.144ZM363.874 631.464C362.802 631.464 361.89 631.776 361.138 632.4C360.402 633.008 359.922 633.84 359.698 634.896L368.05 634.896C367.826 633.824 367.346 632.984 366.61 632.376C365.874 631.768 364.962 631.464 363.874 631.464ZM385.379 630.384C387.107 630.384 388.515 630.952 389.603 632.088C390.691 633.208 391.235 634.624 391.235 636.336C391.235 638.064 390.659 639.488 389.507 640.608C388.371 641.728 386.947 642.288 385.235 642.288C383.411 642.288 381.955 641.696 380.867 640.512C379.779 639.312 379.235 637.808 379.235 636C379.235 635.584 379.243 635.288 379.259 635.112L379.283 634.32C379.283 633.968 379.291 633.696 379.307 633.504C379.323 633.264 379.347 632.96 379.379 632.592C379.571 630.24 380.099 628.52 380.963 627.432C381.843 626.344 383.363 625.6 385.523 625.2L390.347 624.312V625.728L385.547 626.616C384.299 626.872 383.331 627.24 382.643 627.72C381.971 628.2 381.491 628.984 381.203 630.072C380.995 630.856 380.859 631.776 380.795 632.832C381.659 631.2 383.187 630.384 385.379 630.384ZM385.235 640.872C386.547 640.872 387.619 640.44 388.451 639.576C389.283 638.712 389.699 637.632 389.699 636.336C389.699 635.008 389.283 633.92 388.451 633.072C387.619 632.208 386.547 631.776 385.235 631.776C383.923 631.776 382.851 632.216 382.019 633.096C381.203 633.96 380.795 635.04 380.795 636.336C380.795 637.648 381.211 638.736 382.043 639.6C382.875 640.448 383.939 640.872 385.235 640.872ZM396.607 634.488H400.375C401.719 634.488 402.815 634.792 403.663 635.4C404.511 636.008 404.935 636.952 404.935 638.232C404.935 639.496 404.503 640.44 403.639 641.064C402.775 641.688 401.695 642 400.399 642H395.095V630.432H396.607V634.488ZM400.255 635.856H396.607V640.632H400.255C402.335 640.632 403.375 639.832 403.375 638.232C403.375 637.384 403.079 636.776 402.487 636.408C401.895 636.04 401.151 635.856 400.255 635.856ZM407.239 642V630.432H408.727V642H407.239ZM417.094 642V631.8H412.054V630.432H423.646V631.8H418.606V642H417.094ZM431.496 630.144C433.208 630.144 434.632 630.736 435.768 631.92C436.92 633.088 437.496 634.52 437.496 636.216C437.496 637.928 436.92 639.368 435.768 640.536C434.616 641.704 433.192 642.288 431.496 642.288C429.8 642.288 428.376 641.696 427.224 640.512C426.072 639.328 425.496 637.896 425.496 636.216C425.496 634.52 426.072 633.088 427.224 631.92C428.392 630.736 429.816 630.144 431.496 630.144ZM431.496 640.872C432.808 640.872 433.88 640.424 434.712 639.528C435.544 638.632 435.96 637.528 435.96 636.216C435.96 634.888 435.536 633.776 434.688 632.88C433.856 631.984 432.792 631.536 431.496 631.536C430.2 631.536 429.136 631.992 428.304 632.904C427.472 633.816 427.056 634.92 427.056 636.216C427.056 637.528 427.472 638.632 428.304 639.528C429.152 640.424 430.216 640.872 431.496 640.872ZM441.36 642V630.432H447.48C448.584 630.432 449.496 630.672 450.216 631.152C450.936 631.632 451.296 632.392 451.296 633.432C451.296 634.04 451.12 634.592 450.768 635.088C450.416 635.568 449.952 635.872 449.376 636C450.08 636.128 450.648 636.44 451.08 636.936C451.512 637.416 451.728 638.008 451.728 638.712C451.728 639.832 451.328 640.664 450.528 641.208C449.728 641.736 448.736 642 447.552 642H441.36ZM447.504 631.776H442.872V635.4H447.456C449.024 635.4 449.808 634.776 449.808 633.528C449.808 632.36 449.04 631.776 447.504 631.776ZM447.6 636.744H442.872V640.656H447.576C449.304 640.656 450.168 639.992 450.168 638.664C450.168 637.384 449.312 636.744 447.6 636.744ZM460.816 630.144C462.528 630.144 463.952 630.736 465.088 631.92C466.24 633.088 466.816 634.52 466.816 636.216C466.816 637.928 466.24 639.368 465.088 640.536C463.936 641.704 462.512 642.288 460.816 642.288C459.12 642.288 457.696 641.696 456.544 640.512C455.392 639.328 454.816 637.896 454.816 636.216C454.816 634.52 455.392 633.088 456.544 631.92C457.712 630.736 459.136 630.144 460.816 630.144ZM460.816 640.872C462.128 640.872 463.2 640.424 464.032 639.528C464.864 638.632 465.28 637.528 465.28 636.216C465.28 634.888 464.856 633.776 464.008 632.88C463.176 631.984 462.112 631.536 460.816 631.536C459.52 631.536 458.456 631.992 457.624 632.904C456.792 633.816 456.376 634.92 456.376 636.216C456.376 637.528 456.792 638.632 457.624 639.528C458.472 640.424 459.536 640.872 460.816 640.872ZM470.681 642V630.432H472.193V640.008L479.873 630.432H481.385V642H479.873V632.4L472.193 642H470.681ZM476.057 627.024C476.633 627.024 477.081 626.856 477.401 626.52C477.721 626.168 477.881 625.696 477.881 625.104V624.648H479.201V625.128C479.201 625.528 479.137 625.936 479.009 626.352C478.769 626.976 478.385 627.456 477.857 627.792C477.329 628.112 476.729 628.272 476.057 628.272C475.113 628.272 474.353 627.984 473.777 627.408C473.217 626.816 472.937 626.056 472.937 625.128V624.648H474.233V625.104C474.233 625.68 474.393 626.144 474.713 626.496C475.049 626.848 475.497 627.024 476.057 627.024ZM496.219 642V631.8H491.179V630.432H502.771V631.8H497.731V642H496.219ZM510.429 630.144C512.173 630.144 513.565 630.72 514.605 631.872C515.661 633.008 516.213 634.448 516.261 636.192H506.157V636.216C506.157 637.528 506.581 638.632 507.429 639.528C508.277 640.424 509.349 640.872 510.645 640.872C512.197 640.872 513.405 640.392 514.269 639.432C514.461 639.176 514.589 639 514.653 638.904H516.117C515.733 640.216 514.701 641.208 513.021 641.88C512.413 642.152 511.621 642.288 510.645 642.288C508.917 642.288 507.477 641.704 506.325 640.536C505.189 639.368 504.621 637.928 504.621 636.216C504.621 634.488 505.165 633.048 506.253 631.896C507.357 630.728 508.749 630.144 510.429 630.144ZM510.429 631.464C509.357 631.464 508.445 631.776 507.693 632.4C506.957 633.008 506.477 633.84 506.253 634.896H514.605C514.381 633.824 513.901 632.984 513.165 632.376C512.429 631.768 511.517 631.464 510.429 631.464ZM529.068 642L524.556 637.2L520.044 642H518.196L523.62 636.216L518.172 630.432H520.14L524.58 635.208L529.068 630.432H530.94L525.516 636.192L530.94 642H529.068ZM533.985 642V630.432H535.497V635.448H542.937V630.432H544.449V642H542.937V636.816H535.497V642H533.985ZM549.196 642V630.432H550.708V640.008L558.388 630.432H559.9V642H558.388V632.4L550.708 642H549.196ZM564.618 642V630.432H566.082V635.616L573.234 630.432H575.466L567.738 635.952L575.826 642H573.594L566.082 636.456V642H564.618ZM578.517 642V630.432H580.029V640.008L587.709 630.432H589.221V642H587.709V632.4L580.029 642H578.517ZM600.431 642V630.432H601.943V640.008L609.623 630.432H611.135V642H609.623V632.4L601.943 642H600.431ZM1.416 669.592H2.904C3 669.784 3.152 670.008 3.36 670.264C3.728 670.776 4.232 671.176 4.872 671.464C5.512 671.736 6.168 671.872 6.84 671.872C7.992 671.872 8.944 671.488 9.696 670.72C10.448 669.936 10.896 668.968 11.04 667.816H5.328V666.448H11.016C10.792 664.752 9.92 663.544 8.4 662.824C7.92 662.632 7.4 662.536 6.84 662.536C6.168 662.536 5.496 662.68 4.824 662.968C4.168 663.256 3.672 663.664 3.336 664.192C3.128 664.48 2.992 664.696 2.928 664.84H1.416C1.816 663.384 2.832 662.288 4.464 661.552C5.136 661.28 5.928 661.144 6.84 661.144C8.536 661.144 9.92 661.736 10.992 662.92C12.064 664.104 12.6 665.536 12.6 667.216C12.6 668.896 12.048 670.328 10.944 671.512C9.856 672.696 8.488 673.288 6.84 673.288C5.832 673.288 4.856 673.056 3.912 672.592C2.984 672.128 2.312 671.472 1.896 670.624C1.656 670.208 1.496 669.864 1.416 669.592ZM16.9806 668.08L17.6766 661.432H26.1246L26.1246 673H24.6126L24.6126 662.8H18.8766L18.3246 668.152C18.2766 668.744 18.2206 669.232 18.1566 669.616C18.0926 670 17.9806 670.44 17.8206 670.936C17.6766 671.432 17.4846 671.824 17.2446 672.112C17.0046 672.4 16.6766 672.648 16.2606 672.856C15.8446 673.048 15.3566 673.144 14.7966 673.144H14.3166V671.752H14.6046C15.2766 671.752 15.7646 671.592 16.0686 671.272C16.3726 670.952 16.5966 670.448 16.7406 669.76C16.8686 669.008 16.9486 668.448 16.9806 668.08ZM35.796 661.144C37.54 661.144 38.932 661.72 39.972 662.872C41.028 664.008 41.58 665.448 41.628 667.192H31.524V667.216C31.524 668.528 31.948 669.632 32.796 670.528C33.644 671.424 34.716 671.872 36.012 671.872C37.564 671.872 38.772 671.392 39.636 670.432C39.828 670.176 39.956 670 40.02 669.904H41.484C41.1 671.216 40.068 672.208 38.388 672.88C37.78 673.152 36.988 673.288 36.012 673.288C34.284 673.288 32.844 672.704 31.692 671.536C30.556 670.368 29.988 668.928 29.988 667.216C29.988 665.488 30.532 664.048 31.62 662.896C32.724 661.728 34.116 661.144 35.796 661.144ZM35.796 662.464C34.724 662.464 33.812 662.776 33.06 663.4C32.324 664.008 31.844 664.84 31.62 665.896H39.972C39.748 664.824 39.268 663.984 38.532 663.376C37.796 662.768 36.884 662.464 35.796 662.464ZM45.3364 673V661.432H46.8004V666.616L53.9524 661.432H56.1844L48.4564 666.952L56.5444 673H54.3124L46.8004 667.456V673H45.3364ZM62.7422 673V662.8H57.7022V661.432H69.2942V662.8H64.2542V673H62.7422ZM74.1296 670.576V678.376H72.6416V661.432H74.1296V663.904C74.4816 663.056 75.0976 662.384 75.9776 661.888C76.8576 661.392 77.7776 661.144 78.7376 661.144C80.4656 661.144 81.8576 661.728 82.9136 662.896C83.9696 664.064 84.4976 665.504 84.4976 667.216C84.4976 668.944 83.9536 670.392 82.8656 671.56C81.7936 672.712 80.4176 673.288 78.7376 673.288C77.4096 673.288 76.3216 672.92 75.4736 672.184C74.8336 671.704 74.3856 671.168 74.1296 670.576ZM74.1056 667.216C74.1056 668.528 74.5216 669.632 75.3536 670.528C76.1856 671.408 77.2416 671.848 78.5216 671.848C79.8336 671.848 80.8976 671.4 81.7136 670.504C82.5456 669.608 82.9616 668.512 82.9616 667.216C82.9616 665.888 82.5456 664.784 81.7136 663.904C80.8816 663.008 79.8176 662.56 78.5216 662.56C77.2256 662.56 76.1616 663.016 75.3296 663.928C74.5136 664.824 74.1056 665.92 74.1056 667.216ZM93.5036 661.144C95.2156 661.144 96.6396 661.736 97.7756 662.92C98.9276 664.088 99.5036 665.52 99.5036 667.216C99.5036 668.928 98.9276 670.368 97.7756 671.536C96.6236 672.704 95.1996 673.288 93.5036 673.288C91.8076 673.288 90.3836 672.696 89.2316 671.512C88.0796 670.328 87.5036 668.896 87.5036 667.216C87.5036 665.52 88.0796 664.088 89.2316 662.92C90.3996 661.736 91.8236 661.144 93.5036 661.144ZM93.5036 671.872C94.8156 671.872 95.8876 671.424 96.7196 670.528C97.5516 669.632 97.9676 668.528 97.9676 667.216C97.9676 665.888 97.5436 664.776 96.6956 663.88C95.8636 662.984 94.7996 662.536 93.5036 662.536C92.2076 662.536 91.1436 662.992 90.3116 663.904C89.4796 664.816 89.0636 665.92 89.0636 667.216C89.0636 668.528 89.4796 669.632 90.3116 670.528C91.1596 671.424 92.2236 671.872 93.5036 671.872ZM103.368 673V661.432H104.88V666.448H112.32V661.432H113.832V673H112.32V667.816H104.88V673H103.368ZM118.579 673V661.432H120.091V671.008L127.771 661.432H129.283V673H127.771V663.4L120.091 673H118.579ZM134 673V661.432H135.464V666.616L142.616 661.432H144.848L137.12 666.952L145.208 673H142.976L135.464 667.456V673H134ZM147.899 673V661.432H149.411V671.008L157.091 661.432H158.603V673H157.091V663.4L149.411 673H147.899ZM169.814 673V661.432H175.934C177.038 661.432 177.95 661.672 178.67 662.152C179.39 662.632 179.75 663.392 179.75 664.432C179.75 665.04 179.574 665.592 179.222 666.088C178.87 666.568 178.406 666.872 177.83 667C178.534 667.128 179.102 667.44 179.534 667.936C179.966 668.416 180.182 669.008 180.182 669.712C180.182 670.832 179.782 671.664 178.982 672.208C178.182 672.736 177.19 673 176.006 673H169.814ZM175.958 662.776H171.326V666.4H175.91C177.478 666.4 178.262 665.776 178.262 664.528C178.262 663.36 177.494 662.776 175.958 662.776ZM176.054 667.744H171.326V671.656H176.03C177.758 671.656 178.622 670.992 178.622 669.664C178.622 668.384 177.766 667.744 176.054 667.744ZM203.826 671.512V655.96H205.41V671.512H207.93V676.864H206.466V673H191.01V655.96H192.594V671.512H203.826ZM215.89 661.144C217.634 661.144 219.026 661.72 220.066 662.872C221.122 664.008 221.674 665.448 221.722 667.192H211.618V667.216C211.618 668.528 212.042 669.632 212.89 670.528C213.738 671.424 214.81 671.872 216.106 671.872C217.658 671.872 218.866 671.392 219.73 670.432C219.922 670.176 220.05 670 220.114 669.904H221.578C221.194 671.216 220.162 672.208 218.482 672.88C217.874 673.152 217.082 673.288 216.106 673.288C214.378 673.288 212.938 672.704 211.786 671.536C210.65 670.368 210.082 668.928 210.082 667.216C210.082 665.488 210.626 664.048 211.714 662.896C212.818 661.728 214.21 661.144 215.89 661.144ZM215.89 662.464C214.818 662.464 213.906 662.776 213.154 663.4C212.418 664.008 211.938 664.84 211.714 665.896H220.066C219.842 664.824 219.362 663.984 218.626 663.376C217.89 662.768 216.978 662.464 215.89 662.464ZM225.454 673V661.432H226.966V666.448H234.406V661.432H235.918V673H234.406V667.816H226.966V673H225.454ZM244.289 673V662.8H239.249V661.432H250.841V662.8H245.801V673H244.289ZM255.677 670.576V678.376H254.189V661.432H255.677V663.904C256.029 663.056 256.645 662.384 257.525 661.888C258.405 661.392 259.325 661.144 260.285 661.144C262.013 661.144 263.405 661.728 264.461 662.896C265.517 664.064 266.045 665.504 266.045 667.216C266.045 668.944 265.501 670.392 264.413 671.56C263.341 672.712 261.965 673.288 260.285 673.288C258.957 673.288 257.869 672.92 257.021 672.184C256.381 671.704 255.933 671.168 255.677 670.576ZM255.653 667.216C255.653 668.528 256.069 669.632 256.901 670.528C257.733 671.408 258.789 671.848 260.069 671.848C261.381 671.848 262.445 671.4 263.261 670.504C264.093 669.608 264.509 668.512 264.509 667.216C264.509 665.888 264.093 664.784 263.261 663.904C262.429 663.008 261.365 662.56 260.069 662.56C258.773 662.56 257.709 663.016 256.877 663.928C256.061 664.824 255.653 665.92 255.653 667.216ZM279.251 673V670.504C278.931 671.352 278.339 672.032 277.475 672.544C276.627 673.04 275.723 673.288 274.763 673.288C273.083 673.288 271.715 672.696 270.659 671.512C269.603 670.328 269.075 668.896 269.075 667.216C269.075 665.504 269.603 664.064 270.659 662.896C271.731 661.728 273.099 661.144 274.763 661.144C275.723 661.144 276.619 661.384 277.451 661.864C278.299 662.344 278.899 663.008 279.251 663.856V661.432H280.763V673H279.251ZM279.299 667.216C279.299 665.92 278.891 664.824 278.075 663.928C277.275 663.016 276.243 662.56 274.979 662.56C273.699 662.56 272.651 663.016 271.835 663.928C271.035 664.84 270.635 665.936 270.635 667.216C270.635 668.144 270.859 669 271.307 669.784C271.771 670.552 272.411 671.12 273.227 671.488C273.739 671.744 274.323 671.872 274.979 671.872C276.243 671.872 277.275 671.416 278.075 670.504C278.891 669.576 279.299 668.48 279.299 667.216ZM286.652 668.08L287.348 661.432H295.796V673H294.284V662.8H288.548L287.996 668.152C287.948 668.744 287.892 669.232 287.828 669.616C287.764 670 287.652 670.44 287.492 670.936C287.348 671.432 287.156 671.824 286.916 672.112C286.676 672.4 286.348 672.648 285.932 672.856C285.516 673.048 285.028 673.144 284.468 673.144H283.988V671.752H284.276C284.948 671.752 285.436 671.592 285.74 671.272C286.044 670.952 286.268 670.448 286.412 669.76C286.54 669.008 286.62 668.448 286.652 668.08ZM302.06 665.488H305.828C307.172 665.488 308.268 665.792 309.116 666.4C309.964 667.008 310.388 667.952 310.388 669.232C310.388 670.496 309.956 671.44 309.092 672.064C308.228 672.688 307.148 673 305.852 673H300.548V661.432H302.06V665.488ZM305.708 666.856H302.06V671.632H305.708C307.788 671.632 308.828 670.832 308.828 669.232C308.828 668.384 308.532 667.776 307.94 667.408C307.348 667.04 306.604 666.856 305.708 666.856ZM313.72 673V661.432H315.232V666.448H322.672V661.432H324.184V673H322.672V667.816H315.232V673H313.72ZM334.043 661.144C335.755 661.144 337.179 661.736 338.315 662.92C339.467 664.088 340.043 665.52 340.043 667.216C340.043 668.928 339.467 670.368 338.315 671.536C337.163 672.704 335.739 673.288 334.043 673.288C332.347 673.288 330.923 672.696 329.771 671.512C328.619 670.328 328.043 668.896 328.043 667.216C328.043 665.52 328.619 664.088 329.771 662.92C330.939 661.736 332.363 661.144 334.043 661.144ZM334.043 671.872C335.355 671.872 336.427 671.424 337.259 670.528C338.091 669.632 338.507 668.528 338.507 667.216C338.507 665.888 338.083 664.776 337.235 663.88C336.403 662.984 335.339 662.536 334.043 662.536C332.747 662.536 331.683 662.992 330.851 663.904C330.019 664.816 329.603 665.92 329.603 667.216C329.603 668.528 330.019 669.632 330.851 670.528C331.699 671.424 332.763 671.872 334.043 671.872ZM343.907 673V661.432H345.419V671.008L353.099 661.432H354.611V673H353.099V663.4L345.419 673H343.907ZM349.283 658.024C349.859 658.024 350.307 657.856 350.627 657.52C350.947 657.168 351.107 656.696 351.107 656.104V655.648H352.427V656.128C352.427 656.528 352.363 656.936 352.235 657.352C351.995 657.976 351.611 658.456 351.083 658.792C350.555 659.112 349.955 659.272 349.283 659.272C348.339 659.272 347.579 658.984 347.003 658.408C346.443 657.816 346.163 657.056 346.163 656.128V655.648H347.459V656.104C347.459 656.68 347.619 657.144 347.939 657.496C348.275 657.848 348.723 658.024 349.283 658.024ZM379.789 673L377.557 668.2L368.149 668.2L365.941 673H364.357L372.277 655.864H373.501L381.445 673H379.789ZM368.821 666.76L376.909 666.76L372.853 658.024L368.821 666.76ZM389.247 671.896C391.599 671.896 392.775 671.168 392.775 669.712C392.775 668.416 391.719 667.768 389.607 667.768H387.759V666.424H389.631C391.519 666.424 392.463 665.784 392.463 664.504C392.463 663.176 391.375 662.512 389.199 662.512C387.871 662.512 386.815 662.904 386.031 663.688C385.839 663.896 385.663 664.136 385.503 664.408H384.015C384.319 663.352 384.967 662.544 385.959 661.984C386.967 661.408 388.055 661.12 389.223 661.12C390.023 661.12 390.751 661.216 391.407 661.408C392.079 661.584 392.671 661.936 393.183 662.464C393.695 662.976 393.951 663.64 393.951 664.456C393.951 665.112 393.751 665.672 393.351 666.136C392.967 666.6 392.455 666.904 391.815 667.048C392.551 667.16 393.151 667.448 393.615 667.912C394.095 668.376 394.335 668.968 394.335 669.688C394.335 670.952 393.831 671.872 392.823 672.448C391.815 673.008 390.623 673.288 389.247 673.288C388.431 673.288 387.639 673.168 386.871 672.928C386.119 672.688 385.439 672.288 384.831 671.728C384.223 671.152 383.839 670.472 383.679 669.688H385.215C385.551 670.424 386.087 670.976 386.823 671.344C387.575 671.712 388.383 671.896 389.247 671.896ZM398.329 673V661.432H399.841V671.008L407.521 661.432H409.033V673H407.521V663.4L399.841 673H398.329ZM413.774 673V661.432H415.286V671.008L422.966 661.432H424.478V673H422.966V663.4L415.286 673H413.774ZM429.076 673V669.712H430.9V673H429.076Z" fill="white"/>
</svg>
